<svg width="48" height="48" viewBox="0 0 48 48" fill="none" xmlns="http://www.w3.org/2000/svg">
<path fill-rule="evenodd" clip-rule="evenodd" d="M20.1294 2.84933C21.041 3.47306 21.2744 4.7177 20.6506 5.62931L16.2918 11.9999H31.7083L27.3494 5.62931C26.7257 4.7177 26.959 3.47306 27.8707 2.84933C28.7823 2.2256 30.0269 2.45897 30.6506 3.37058L36.5549 11.9999H42C42.6119 11.9999 43.1902 12.2801 43.5695 12.7603C43.9488 13.2405 44.0874 13.8679 43.9456 14.4632L38.9456 35.4632C38.7311 36.3641 37.9261 36.9999 37 36.9999H11C10.0739 36.9999 9.26891 36.3641 9.05441 35.4632L4.05441 14.4632C3.91267 13.8679 4.05126 13.2405 4.43055 12.7603C4.80984 12.2801 5.38809 11.9999 6.00002 11.9999H11.4451L17.3494 3.37058C17.9731 2.45897 19.2178 2.2256 20.1294 2.84933ZM8.53212 15.9999L12.5797 32.9999H35.4203L39.4679 15.9999H8.53212Z" fill="white"/>
</svg>
