<svg width="321" height="141" viewBox="0 0 321 141" fill="none" xmlns="http://www.w3.org/2000/svg">
<path d="M216.135 10.7202C215.801 9.05087 217.411 8.46169 219.473 9.05087C220.573 9.36503 224.269 12.4432 228.299 15.7992C231.826 18.7372 235.61 21.8881 238.131 23.5841C241.932 26.1409 247.434 28.7787 252.107 31.0185L252.107 31.0187L252.107 31.019L252.109 31.0197L252.111 31.0208C254.077 31.963 255.895 32.8348 257.378 33.6003C258.622 34.3532 260.618 36.448 259.244 38.412C257.869 40.376 256.199 40.9651 252.861 39.2958C249.522 37.6264 242.452 33.6003 233.909 27.7085C225.365 21.8166 216.469 12.3896 216.135 10.7202Z" fill="#E0004B"/>
<path d="M41.8338 102.142C40.6554 100.277 42.2266 97.527 44.2887 96.1522C50.406 92.074 56.6462 88.221 63.4373 85.3505C72.9625 81.3244 82.6841 78.3785 85.63 78.3785C88.5759 78.3785 88.8705 79.5568 88.7723 80.4406C88.6741 81.3244 87.4957 82.5028 85.139 83.0919C82.7823 83.6811 71.3913 87.5108 65.303 91.1442C63.0069 92.5144 60.7381 94.212 58.4468 95.9264C54.7703 98.6773 51.036 101.471 47.0382 103.026C45.2707 103.713 43.0122 104.008 41.8338 102.142Z" fill="#E0004B"/>
<path d="M64.6156 97.1342C60.9823 99.491 55.876 103.615 55.385 105.088C54.8941 106.561 55.169 107.995 56.6616 109.016C58.5274 110.293 60.2949 109.704 61.1787 109.016C61.4925 108.772 62.0415 108.058 62.773 107.106C64.1016 105.377 66.0323 102.864 68.2489 100.964C71.2301 98.4087 74.6545 96.8877 76.4716 96.0807L76.4723 96.0804L76.4742 96.0795L76.4746 96.0793C76.7511 95.9565 76.9903 95.8503 77.1849 95.7595C78.6579 95.0721 79.3453 92.4207 77.1849 92.2243C75.0246 92.0279 68.2489 94.7775 64.6156 97.1342Z" fill="#E0004B"/>
<path d="M235.774 10.2292C234.694 9.64005 232.632 10.2292 233.516 12.586C234.858 14.2226 238.543 18.0851 242.55 20.4418C247.558 23.3877 250.308 24.2715 253.254 24.9589C256.199 25.6463 257.771 24.9589 258.262 22.7003C258.753 20.4418 256.887 18.576 255.905 18.2814C255.535 18.1706 254.457 17.9486 253.068 17.6625C250.764 17.1881 247.603 16.5373 245.398 15.9247C242.77 15.1948 239.328 12.7286 237.291 11.2687L237.291 11.2686L237.291 11.2684C236.587 10.7644 236.051 10.3804 235.774 10.2292Z" fill="#E0004B"/>
<path d="M104.189 12.095C101.931 11.8986 101.243 14.9427 102.618 16.0229C103.993 17.1031 112.065 20.7757 116.071 21.7184C121.079 22.8967 130.605 22.7003 132.568 22.4058C134.532 22.1112 135.844 19.858 135.728 18.2842C135.613 16.7103 134.238 14.7463 132.077 14.7463C131.474 14.7463 130.448 14.846 129.147 14.9725C125.791 15.2987 120.6 15.8034 116.071 15.2373C112.253 14.7601 109.523 13.7754 107.461 13.032C106.129 12.5517 105.076 12.1721 104.189 12.095Z" fill="#E0004B"/>
<path fill-rule="evenodd" clip-rule="evenodd" d="M77.1958 57.3285C77.2776 58.1203 77.412 58.8866 77.5988 59.6275C76.8849 60.4895 76.215 61.1865 75.5889 61.7187C74.4267 62.7367 73.1781 63.3146 71.8432 63.4526C70.4274 63.5989 69.2712 63.2899 68.3745 62.5255C67.5182 61.757 67.0025 60.5247 66.8272 58.8287C66.6769 57.3749 66.6997 55.6176 66.8956 53.5568L68.8065 35.8507C69.1853 32.7914 69.3096 29.8401 69.1792 26.9967L75.3891 27.1507C75.636 27.166 75.9819 27.1507 76.4269 27.1047C77.6404 26.9793 78.5193 26.5823 79.0635 25.9139C79.6035 25.2051 79.8109 24.245 79.6857 23.0335C79.6022 22.2259 79.246 21.5485 78.6171 21.0013C78.0244 20.4096 77.0906 20.0775 75.8158 20.0052C68.0856 19.5798 60.2562 19.7768 52.3276 20.5963C44.6822 21.3865 38.4824 22.517 33.7284 23.9878C29.0148 25.4545 25.5731 27.3611 23.4035 29.7076C21.2297 32.0137 20.3201 34.8829 20.6749 38.3153C20.8418 39.9306 21.255 41.3571 21.9144 42.595C22.5697 43.7924 23.3373 44.6926 24.2173 45.2955C24.704 45.6533 25.2912 45.7967 25.9789 45.7256C26.9497 45.6252 27.8265 45.2081 28.6092 44.4742C29.4282 43.6958 29.796 42.9027 29.7125 42.0951C29.6666 41.6509 29.5279 41.2979 29.2964 41.0362C28.5003 40.0573 28.0291 38.8612 27.883 37.4479C27.7036 35.7115 28.3909 34.2528 29.9451 33.0719C31.5398 31.8868 34.1952 30.8777 37.9113 30.0447L37.605 33.0149C37.3029 36.0254 37.0133 39.1571 36.7362 42.4099C36.4592 45.6627 36.2309 48.9921 36.0514 52.3981C35.9965 54.2404 35.8739 56.4161 35.6835 58.9253C35.5336 61.4304 35.4136 63.8303 35.3237 66.1251C35.2701 68.3753 35.2934 69.985 35.3936 70.9542C35.5021 72.0041 35.9538 72.8145 36.7487 73.3853C37.5436 73.9562 38.6085 74.1726 39.9434 74.0346C41.1975 73.905 42.2381 73.4914 43.0655 72.7937C43.8886 72.0556 44.2802 71.0968 44.24 69.9174C44.1723 67.6797 44.1954 64.7388 44.3094 61.0947C44.4192 57.4103 44.5547 54.1721 44.7159 51.3802C45.2299 43.6951 45.8352 36.1026 46.5319 28.6028C47.4986 28.462 49.0741 28.2788 51.2585 28.053C54.8992 27.6767 58.0607 27.4112 60.7431 27.2564C60.7941 29.3326 60.5413 33.2155 59.9846 38.9052L58.8851 50.2218C58.4068 55.0871 58.2782 58.5899 58.4994 60.7301C58.8541 64.1625 60.0885 66.8102 62.2026 68.6731C64.3126 70.4957 67.0867 71.2293 70.5251 70.8739C72.8309 70.6356 74.9346 69.8264 76.8361 68.4463C78.0281 67.5966 79.1934 66.4884 80.3319 65.1215C81.2339 66.1965 82.3056 67.0736 83.5472 67.7527C85.4077 68.7439 87.5515 69.1141 89.9786 68.8633C92.8507 68.5665 95.3151 67.2914 97.3717 65.0382C99.4242 62.7447 100.659 59.8622 101.077 56.3907C101.857 56.2772 102.617 56.1391 103.357 55.9766C103.067 57.0046 102.989 58.174 103.125 59.4849C103.359 61.7463 104.139 63.5634 105.467 64.9362C106.794 66.3091 108.49 66.8889 110.553 66.6757C113.586 66.3621 116.126 64.6304 118.172 61.4804C120.258 58.3263 121.833 53.9803 122.896 48.4424L123.017 48.4298C123.039 50.2233 123.148 52.069 123.344 53.9669C123.736 57.7628 124.536 60.5574 125.744 62.3508C126.947 64.1038 128.742 64.8569 131.129 64.6103C132.949 64.4221 134.532 63.9117 135.877 63.0788C136.935 62.4066 137.844 61.6899 138.605 60.9286C138.829 61.1514 139.07 61.3616 139.327 61.5591C141.055 62.8497 143.173 63.3655 145.681 63.1062C151.506 62.5042 155.934 58.4754 158.966 51.0199L159.087 51.0073C158.987 52.4054 158.997 53.6899 159.118 54.861C159.343 57.0416 159.961 58.6714 160.972 59.7505C161.983 60.8295 163.318 61.2834 164.977 61.112C166.878 60.9155 168.737 60.1112 170.553 58.699C171.437 58.0118 172.325 57.1743 173.217 56.1866C173.404 56.7877 173.607 57.3084 173.826 57.7486C174.64 59.2969 175.816 59.9917 177.353 59.8328C178.283 59.7367 178.928 59.4456 179.286 58.9596C179.641 58.4332 179.806 57.6611 179.783 56.6432C179.76 55.6253 179.639 53.8624 179.42 51.3546L179.289 50.0826C179.243 49.6384 179.202 48.8468 179.166 47.7078C180.55 47.6464 183.022 47.4317 186.581 47.0638C186.538 48.6192 186.572 49.942 186.685 51.0323C186.952 53.6167 187.577 55.5111 188.56 56.7155C189.543 57.9199 191.086 58.4134 193.19 58.196C195.698 57.9368 197.852 57.0204 199.652 55.4467C200.446 54.7661 201.221 54.0152 201.977 53.194C202.289 53.6376 202.635 54.0481 203.018 54.4254C204.702 56.0879 206.799 56.7895 209.307 56.5303C212.502 56.2 214.977 54.2301 216.73 50.6207C217.459 52.1371 218.417 53.3032 219.605 54.119C220.83 54.8904 222.11 55.207 223.445 55.0691C225.184 54.8893 226.911 53.9966 228.626 52.3909C230.34 50.7853 231.921 48.867 233.366 46.6362C234.043 45.6683 234.298 44.3768 234.131 42.7615C234.043 41.9135 233.813 41.264 233.439 40.8128C233.106 40.3575 232.676 40.1571 232.15 40.2114C231.544 40.2741 231.027 40.6132 230.6 41.2287C228.968 43.642 227.659 45.4099 226.671 46.5323C225.679 47.6143 224.799 48.1951 224.03 48.2745C223.545 48.3247 223.121 48.1847 222.76 47.8548C222.44 47.5206 222.248 47.0507 222.185 46.4449C221.997 44.6278 222.129 41.3492 222.579 36.6092C222.856 33.3564 222.951 31.306 222.863 30.458C222.717 29.0446 221.653 28.4404 219.671 28.6453C218.741 28.7414 217.859 28.9142 217.026 29.1635C216.732 28.296 216.407 27.7175 216.05 27.4279C215.729 27.0937 215.124 26.9726 214.234 27.0646C211.442 27.3531 208.885 28.5153 206.56 30.5513C204.272 32.5427 202.53 35.0695 201.334 38.1316C200.177 41.0428 199.733 44.0508 200 47.1558C199.288 48.1117 198.659 48.8877 198.115 49.4836C197.123 50.5656 196.223 51.1485 195.414 51.2321C194.888 51.2864 194.442 51.1284 194.077 50.7581C193.707 50.3473 193.483 49.7583 193.404 48.9911C193.279 47.7797 193.515 44.531 194.114 39.2452C194.657 34.618 194.877 31.7996 194.773 30.79C194.71 30.1843 194.487 29.7993 194.102 29.6351C193.712 29.4304 193.053 29.3761 192.122 29.4723C190.787 29.6103 189.803 29.9773 189.17 30.5733C188.577 31.1652 188.181 32.0835 187.983 33.3284C187.519 36.3557 187.183 38.8392 186.974 40.7789L179.208 41.5816C179.295 39.6544 179.431 38.0078 179.617 36.6418C179.99 34.3177 180.143 32.8327 180.076 32.1866C180.018 31.6212 179.816 31.2543 179.472 31.0859C179.127 30.9174 178.551 30.875 177.742 30.9586C176.204 31.1175 175.061 31.5214 174.31 32.1703C173.555 32.7789 173.056 33.6875 172.813 34.8962C171.874 39.4395 171.608 44.1433 172.013 49.0076C170.899 50.5883 169.974 51.7622 169.241 52.5291C168.245 53.5708 167.362 54.1313 166.594 54.2108C166.027 54.2693 165.562 54.1134 165.196 53.743C164.867 53.3281 164.663 52.737 164.584 51.9698C164.417 50.3545 164.399 48.6014 164.531 46.7104C164.662 44.8194 164.898 42.5504 165.238 39.9033C165.618 37.252 165.796 35.4174 165.773 34.3995C165.787 33.7451 165.532 33.2612 165.009 32.9479C164.523 32.5901 163.875 32.453 163.066 32.5366C161.65 32.683 160.751 33.082 160.368 33.7337C157.992 33.2855 155.711 33.1743 153.527 33.4001C150.412 33.722 148.07 34.8007 146.502 36.6361C144.93 38.4311 144.298 40.8227 144.607 43.8109C144.874 46.3953 145.794 48.3816 147.369 49.7697C148.984 51.1537 151.005 51.7203 153.432 51.4694L154.221 51.3879C153.117 52.9712 151.96 54.2336 150.749 55.175C149.533 56.076 148.299 56.5914 147.045 56.721C146.074 56.8213 145.262 56.4767 144.608 55.6873C143.954 54.8978 143.56 53.857 143.426 52.5648C143.393 52.2417 143.383 51.753 143.397 51.0985C143.437 50.6863 143.448 50.3995 143.431 50.238C143.31 49.0669 142.521 48.5566 141.065 48.7071C139.407 48.8786 138.155 49.6202 137.309 50.9319C136.59 52.0992 136.279 53.5821 136.374 55.3807C135.969 55.9354 135.624 56.3773 135.341 56.7063C134.724 57.4638 134.051 57.8802 133.323 57.9555C131.584 58.1353 130.495 56.1051 130.057 51.8651C129.902 50.371 129.731 47.9196 129.542 44.5109L129.2 40.016C129.058 38.643 128.592 37.6913 127.801 37.1609C127.01 36.6304 125.846 36.4446 124.309 36.6035C122.732 36.7665 121.551 37.215 120.769 37.9489C119.982 38.6424 119.352 39.8706 118.88 41.6335C118.413 43.4368 117.788 45.5012 117.006 47.8267C116.265 50.148 115.521 52.2451 114.774 54.118C113.803 56.5856 113.085 58.1494 112.622 58.8095C112.199 59.4653 111.785 59.8142 111.381 59.856C110.653 59.9313 110.214 59.242 110.063 57.7883C109.988 57.0614 110.012 55.7121 110.136 53.7404C110.145 53.4907 110.112 53.2688 110.034 53.0745C110.351 52.4425 110.453 51.5759 110.339 50.4747C110.256 49.6671 110.046 49.0154 109.708 48.5198C109.371 48.0241 108.939 47.8034 108.413 47.8578C108.17 47.8828 107.891 47.9525 107.576 48.0667C105.018 49.0249 102.794 49.6629 100.905 49.9805C100.26 46.9046 98.8789 44.415 96.7606 42.5117C94.6786 40.5638 92.1005 39.7487 89.0261 40.0665C86.5181 40.3257 84.3035 41.2484 82.3823 42.8346C80.457 44.3804 79.033 46.4253 78.1103 48.9695C77.1834 51.4732 76.8786 54.2595 77.1958 57.3285ZM89.8004 62.3925C91.0949 62.2587 92.1531 61.6188 92.9749 60.4727C93.8373 59.3225 94.328 57.7413 94.4471 55.7292C93.1055 55.0108 92.0198 54.0006 91.1903 52.6987C90.4011 51.3927 89.9273 49.9724 89.7687 48.4379C89.7019 47.7918 89.6958 47.1394 89.7504 46.4808L89.447 46.5122C87.8289 46.6794 86.5552 47.6069 85.6257 49.2946C84.7326 50.9378 84.432 53.1728 84.7242 55.9994C84.9537 58.2204 85.5538 59.8725 86.5243 60.9558C87.5353 62.0348 88.6273 62.5138 89.8004 62.3925ZM156.955 46.3915C158.084 43.8669 158.913 41.21 159.442 38.4208C157.94 38.1271 156.623 38.0388 155.49 38.1559C153.872 38.3231 152.658 38.8364 151.847 39.6956C151.036 40.5548 150.704 41.6911 150.85 43.1044C150.967 44.2351 151.429 45.1464 152.237 45.8384C153.085 46.5262 154.075 46.8116 155.207 46.6945C155.733 46.6402 156.316 46.5392 156.955 46.3915ZM210.859 50.1868C211.749 50.0948 212.544 49.482 213.244 48.3485C213.945 47.215 214.387 45.7612 214.572 43.9872L215.665 32.61C213.97 32.8259 212.46 33.6351 211.133 35.0374C209.842 36.3952 208.876 38.1275 208.236 40.2344C207.595 42.3412 207.391 44.5253 207.625 46.7867C207.754 48.0385 208.093 48.9422 208.641 49.4977C209.23 50.0491 209.969 50.2788 210.859 50.1868Z" fill="#E0004B"/>
<path fill-rule="evenodd" clip-rule="evenodd" d="M298.674 72.1615C299.193 72.1114 299.617 72.3324 299.947 72.8245C300.276 73.3166 300.48 73.962 300.557 74.7606C300.653 75.7588 300.589 76.551 300.363 77.137C300.134 77.6831 299.729 78.0849 299.15 78.3424C296.835 79.4123 294.246 80.1459 291.382 80.5433C290.904 83.9347 289.645 86.7566 287.605 89.0089C285.606 91.2575 283.268 92.5109 280.593 92.7693C276.56 93.1587 273.476 91.9048 271.343 89.0075C270.041 87.2398 269.031 84.9261 268.314 82.0666C266.674 82.6153 264.917 83.0198 263.041 83.2801C262.606 86.7075 261.369 89.5474 259.33 91.7998C257.286 94.0123 254.847 95.2554 252.012 95.5292C249.616 95.7605 247.504 95.3801 245.675 94.3879C244.472 93.7178 243.432 92.8584 242.557 91.8098C241.298 93.244 239.855 94.4639 238.23 95.4696C235.602 97.0534 232.611 98.0072 229.257 98.3311C225.743 98.6704 222.97 98.3337 220.937 97.3209C218.901 96.2681 217.752 94.3841 217.49 91.6688C217.324 89.9518 217.543 88.4596 218.146 87.1923C218.785 85.8812 219.587 84.7962 220.552 83.9372C221.553 83.0345 222.811 82.0868 224.328 81.094C225.88 80.0574 227.005 79.183 227.702 78.4709C228.395 77.7188 228.697 76.8836 228.608 75.9652C228.558 75.4461 228.3 75.068 227.834 74.8309C227.364 74.5538 226.709 74.4558 225.871 74.5368C225.112 74.6101 224.445 74.7954 223.869 75.0928C223.289 75.3503 222.659 75.7134 221.979 76.1821C221.896 76.2341 221.813 76.2861 221.728 76.3383C221.287 76.6586 220.844 77.0057 220.55 77.2983C220.025 77.8206 219.741 78.2973 219.362 78.9337L219.362 78.9341C219.171 79.2546 218.956 79.6159 218.673 80.0438L218.669 80.0506C218.619 80.1261 218.569 80.2025 218.518 80.2798C218.452 80.3798 218.385 80.4812 218.317 80.5842C216.491 83.3397 213.885 87.1737 209.069 88.2864C209.063 88.3617 209.058 88.431 209.053 88.4935C208.618 91.9209 207.381 94.7609 205.342 97.0132C203.298 99.2257 200.859 100.469 198.024 100.743C195.628 100.974 193.516 100.594 191.687 99.6013C190.451 98.9129 189.387 98.0247 188.497 96.9369C187.561 98.0381 186.569 99.0239 185.522 99.8944C183.697 101.441 181.526 102.336 179.01 102.579C176.894 102.783 175.104 102.19 173.64 100.8C171.506 102.497 169.204 103.485 166.732 103.764C166.957 111.521 166.4 118.064 165.06 123.392C163.725 128.76 161.28 131.616 157.726 131.959C155.57 132.168 153.898 131.543 152.709 130.086C151.52 128.629 150.793 126.523 150.527 123.768C150.149 119.855 150.606 115.196 151.898 109.791C152.297 108.137 152.785 106.423 153.361 104.648C152.377 105.015 151.326 105.252 150.206 105.36C148.289 105.545 146.8 104.943 145.739 103.555C144.718 102.162 144.078 100.128 143.82 97.4528C143.403 100.234 142.587 102.428 141.372 104.037C140.154 105.605 138.766 106.465 137.208 106.615C135.411 106.789 133.855 106.113 132.539 104.588C132.14 104.098 131.791 103.565 131.493 102.987C130.712 103.851 129.895 104.638 129.04 105.349C127.214 106.895 125.044 107.79 122.528 108.033C120.492 108.23 118.898 107.799 117.748 106.741C116.595 105.644 115.91 103.977 115.694 101.741C115.586 100.623 115.672 98.5991 115.954 95.6701C116.23 93.1043 116.322 91.3423 116.229 90.3839C116.168 89.7451 115.917 89.4468 115.478 89.4892C114.959 89.5394 114.286 90.2895 113.458 91.7397C112.667 93.1461 111.879 94.9956 111.092 97.2882C110.346 99.5769 109.791 101.968 109.427 104.462C109.169 106.381 108.774 107.709 108.24 108.445C107.743 109.138 106.875 109.544 105.637 109.664C104.12 109.81 102.965 109.116 102.172 107.58C101.419 106.041 100.872 103.514 100.533 100.001C100.032 94.8096 100.294 89.8068 101.321 84.9923C101.568 83.7996 102.066 82.9051 102.815 82.3089C103.599 81.6689 104.73 81.2776 106.208 81.1349C107.006 81.0578 107.575 81.1036 107.914 81.2724C108.252 81.4412 108.449 81.8052 108.503 82.3642C108.564 83.0031 108.404 84.4695 108.021 86.7634C107.776 88.3992 107.591 89.8277 107.467 91.0487C107.343 92.2698 107.286 93.7665 107.296 95.5388C108.282 91.9776 109.49 89.0397 110.919 86.7254C112.348 84.4111 113.796 82.7195 115.265 81.6507C116.774 80.5781 118.187 79.9781 119.504 79.8509C122.1 79.6003 123.523 80.7727 123.774 83.3682C123.924 84.9255 123.757 87.783 123.271 91.9407C122.848 95.4879 122.691 97.8206 122.799 98.9386C122.953 100.536 123.609 101.279 124.767 101.167C125.566 101.09 126.458 100.52 127.443 99.4574C128.168 98.6721 129.046 97.5675 130.075 96.1435C129.953 94.0534 129.95 92.0911 130.067 90.2568C130.223 87.7026 130.626 84.9836 131.274 82.0998C131.558 80.8633 132.034 79.9508 132.702 79.3623C133.371 78.7738 134.484 78.4044 136.041 78.254C136.92 78.1692 137.532 78.2511 137.879 78.4997C138.265 78.7446 138.485 79.1465 138.539 79.7055C138.57 80.025 138.455 81.1243 138.193 83.0035C137.936 84.5195 137.746 85.888 137.622 87.1091C137.228 91.3789 137.099 94.2126 137.234 95.6102C137.315 96.4487 137.472 97.038 137.707 97.3781C137.937 97.6783 138.272 97.8072 138.711 97.7647C139.31 97.7069 139.991 97.0366 140.754 95.7539C141.557 94.4673 142.34 92.5579 143.103 90.0257C143.906 87.4897 144.615 84.3985 145.23 80.7521C145.434 79.5234 145.83 78.6186 146.419 78.0378C147.047 77.4532 148.02 77.0972 149.338 76.97C150.257 76.8813 150.907 76.9394 151.29 77.1443C151.668 77.3092 151.886 77.6912 151.944 78.2901C152.041 79.2884 151.806 82.0718 151.239 86.6404C150.615 91.8595 150.36 95.068 150.476 96.2659C150.549 97.0246 150.767 97.6082 151.129 98.0165C151.487 98.385 151.925 98.5442 152.444 98.494C153.243 98.4169 154.135 97.8471 155.121 96.7847C155.865 95.9784 156.77 94.8355 157.835 93.356C158.072 92.8404 158.315 92.3208 158.563 91.7973C158 85.9674 157.569 81.9183 157.27 79.65C157.118 78.4958 157.488 77.5331 158.381 76.7617C159.274 75.9904 160.439 75.5353 161.876 75.3965C162.715 75.3155 163.331 75.4373 163.725 75.762C164.156 76.0429 164.439 76.6806 164.575 77.675C164.672 78.6732 164.763 79.41 164.849 79.8853C165.973 78.1647 167.12 76.9052 168.293 76.1069C169.461 75.2686 170.744 74.782 172.142 74.647C174.378 74.4311 176.282 75.1541 177.853 76.816C179.464 78.4741 180.41 80.7605 180.691 83.6755C180.896 85.7918 180.755 87.881 180.269 89.9431C179.783 92.0052 179.02 93.9126 177.98 95.6654C178.842 95.8241 179.552 95.8764 180.111 95.8224C181.429 95.6951 182.64 95.0945 183.746 94.0205C184.369 93.4151 185.08 92.5963 185.88 91.5641C185.696 90.8208 185.566 90.052 185.489 89.2576C185.196 86.2229 185.515 83.4717 186.445 81.0039C187.372 78.4963 188.79 76.4853 190.699 74.9709C192.604 73.4166 194.795 72.5199 197.271 72.2809C200.305 71.9878 202.843 72.8108 204.884 74.7497C206.962 76.6449 208.308 79.1144 208.925 82.1582C208.949 82.2774 208.972 82.4018 208.992 82.5305C210.797 81.6917 212.135 79.959 213.732 77.5475C213.779 77.4767 213.826 77.4051 213.874 77.3327C213.939 77.2345 214.004 77.1348 214.07 77.0339C214.88 75.8021 215.807 74.3934 216.853 73.2292C217.249 72.7895 217.684 72.3573 218.166 71.9576C218.19 71.9344 218.215 71.9113 218.24 71.8883C218.98 71.2122 220.11 70.5993 221.629 70.0496C223.148 69.4999 224.706 69.148 226.303 68.9937C229.298 68.7045 231.606 69.0257 233.227 69.9573C234.885 70.8451 235.81 72.2873 236.003 74.2838C236.169 76.0009 235.948 77.4731 235.341 78.7005C234.734 79.9279 233.964 80.9292 233.032 81.7044C232.099 82.4796 230.872 83.3436 229.352 84.2965C227.72 85.3407 226.536 86.2209 225.799 86.9369C225.062 87.6529 224.745 88.55 224.85 89.6281C224.934 90.5066 225.314 91.0946 225.987 91.3923C226.661 91.69 227.796 91.7617 229.393 91.6075C231.749 91.38 234.029 90.5754 236.233 89.1938C237.546 88.3584 238.747 87.3677 239.837 86.2217C239.669 85.5185 239.55 84.7927 239.477 84.0442C239.184 81.0095 239.503 78.2583 240.433 75.7905C241.36 73.2829 242.778 71.2719 244.687 69.7575C246.593 68.2032 248.783 67.3065 251.259 67.0675C254.293 66.7744 256.831 67.5974 258.873 69.5363C260.95 71.4315 262.297 73.901 262.913 76.9448C264.212 76.7352 265.671 76.3733 267.292 75.8591C266.801 70.7235 266.902 65.0908 267.595 58.9609C268.287 52.768 269.646 47.4377 271.673 42.9699C273.736 38.4582 276.465 36.0385 279.859 35.7108C281.696 35.5334 283.25 36.1893 284.522 37.6786C285.791 39.1279 286.547 41.1104 286.79 43.626C287.106 46.9003 286.801 50.2144 285.876 53.5683C284.95 56.9223 283.221 60.5149 280.69 64.3464C283.384 64.2877 285.668 65.1956 287.542 67.0701C289.412 68.9047 290.649 71.284 291.254 74.208C293.119 73.907 295.317 73.2917 297.847 72.3623C298.079 72.2593 298.354 72.1924 298.674 72.1615ZM198.014 78.6128C197.92 78.6046 197.824 78.6004 197.728 78.6004C196.518 78.6004 195.406 79.2628 194.535 80.3678C194.292 80.6657 194.066 81.0019 193.857 81.3764C193.677 81.7025 193.521 82.0525 193.388 82.4263C192.929 83.6139 192.665 85.0052 192.665 86.4926C192.665 88.1354 192.987 89.661 193.538 90.9243C193.827 91.7185 194.203 92.3788 194.668 92.9054C195.461 93.7655 196.309 94.245 197.21 94.3439C197.381 94.3709 197.553 94.3847 197.728 94.3847C198.634 94.3847 199.485 94.0136 200.221 93.3636C200.513 93.1131 200.784 92.8159 201.034 92.472C201.171 92.2921 201.298 92.1013 201.416 91.8997C202.083 90.7948 202.548 89.3902 202.719 87.8292C202.667 87.8055 202.616 87.7812 202.565 87.7564C200.76 86.8743 199.537 85.4214 198.817 83.838C198.086 82.2318 197.824 80.3841 198.014 78.6128ZM279.054 41.7735C278.255 41.8506 277.492 43.1334 276.765 45.6217C276.075 48.0663 275.526 51.3636 275.121 55.5137C274.716 59.6637 274.547 64.1738 274.614 69.044C276.783 63.9579 278.469 59.5028 279.671 55.6788C280.91 51.8111 281.39 48.4397 281.113 45.5647C280.989 44.2869 280.735 43.324 280.35 42.676C280.005 42.0242 279.573 41.7234 279.054 41.7735ZM280.219 86.3972C281.457 86.2776 282.505 85.6525 283.363 84.5218C284.221 83.391 284.716 81.8319 284.846 79.8445C283.527 79.1255 282.463 78.1199 281.653 76.8279C280.883 75.5319 280.425 74.1253 280.278 72.6079C280.224 72.0489 280.231 71.2825 280.298 70.3087L280.118 70.3261C278.481 70.4842 277.183 71.4358 276.223 73.1809C275.299 74.8822 274.968 77.0905 275.23 79.8058C275.45 82.0818 276.037 83.7783 276.991 84.8953C277.985 86.0084 279.061 86.509 280.219 86.3972ZM255.022 87.2585C254.204 88.3854 253.156 89.0106 251.878 89.134C250.72 89.2458 249.646 88.7651 248.656 87.692C247.705 86.6149 247.124 84.9783 246.912 82.7822C246.642 79.987 246.953 77.7806 247.845 76.163C248.773 74.5016 250.035 73.5938 251.632 73.4396L251.932 73.4106C251.874 74.0611 251.875 74.7058 251.937 75.3447C252.084 76.862 252.542 78.2687 253.312 79.5646C254.122 80.8567 255.186 81.8623 256.505 82.5813C256.375 84.5687 255.88 86.1278 255.022 87.2585ZM170.204 95.2678C169.125 96.6213 167.883 97.5272 166.476 97.9854C166.42 96.9833 166.303 95.5639 166.125 93.727C165.797 90.3329 165.569 87.7555 165.439 85.9947C167.182 82.7633 168.773 81.0782 170.21 80.9394C171.009 80.8623 171.679 81.12 172.22 81.7127C172.757 82.2653 173.083 83.1407 173.199 84.3386C173.395 86.375 173.225 88.3663 172.687 90.3125C172.146 92.2187 171.318 93.8704 170.204 95.2678ZM159.651 118.715C159.388 123.497 158.717 125.939 157.639 126.043C157.239 126.082 156.867 125.775 156.522 125.123C156.137 124.475 155.883 123.513 155.759 122.235C155.52 119.759 155.725 116.656 156.372 112.926C157.019 109.196 158.009 105.252 159.34 101.093C159.815 108.1 159.919 113.974 159.651 118.715Z" fill="#E0004B"/>
<path d="M194.304 112.456L195.302 122.817L193.425 122.998L192.585 114.279L186.74 114.842L187.58 123.56L185.703 123.741L184.705 113.38L194.304 112.456Z" fill="#E0004B"/>
<path fill-rule="evenodd" clip-rule="evenodd" d="M206.436 116.575C206.449 116.719 206.454 116.909 206.451 117.146L198.045 117.956C198.25 118.857 198.718 119.555 199.45 120.05C200.194 120.531 201.074 120.722 202.09 120.624C203.328 120.505 204.285 119.992 204.961 119.085L206.113 120.197C205.697 120.79 205.151 121.263 204.474 121.618C203.811 121.971 203.05 122.189 202.19 122.272C201.095 122.377 200.103 122.249 199.213 121.888C198.322 121.513 197.603 120.945 197.056 120.182C196.522 119.418 196.206 118.527 196.108 117.511C196.011 116.507 196.146 115.58 196.511 114.729C196.889 113.877 197.448 113.192 198.187 112.674C198.938 112.141 199.809 111.827 200.8 111.732C201.79 111.636 202.692 111.78 203.505 112.162C204.329 112.53 204.996 113.097 205.504 113.864C206.024 114.629 206.335 115.533 206.436 116.575ZM200.952 113.315C200.053 113.402 199.323 113.748 198.764 114.355C198.217 114.96 197.934 115.71 197.915 116.607L204.562 115.967C204.373 115.104 203.947 114.428 203.281 113.939C202.628 113.437 201.851 113.229 200.952 113.315Z" fill="#E0004B"/>
<path d="M212.077 116.782L209.927 116.989L210.348 121.368L208.472 121.549L207.474 111.188L209.351 111.007L209.772 115.386L211.962 115.175L214.903 110.472L216.916 110.279L213.467 115.642L218.188 120.613L215.979 120.826L212.077 116.782Z" fill="#E0004B"/>
<path fill-rule="evenodd" clip-rule="evenodd" d="M227.525 109.257L228.522 119.618L226.724 119.791L226.566 118.149C226.204 118.763 225.718 119.25 225.108 119.611C224.499 119.973 223.809 120.19 223.04 120.264C222.037 120.361 221.116 120.226 220.279 119.859C219.441 119.493 218.756 118.934 218.223 118.183C217.702 117.418 217.391 116.514 217.291 115.471C217.191 114.428 217.324 113.488 217.69 112.651C218.07 111.812 218.636 111.132 219.388 110.613C220.141 110.093 221.018 109.785 222.022 109.688C222.765 109.617 223.463 109.694 224.116 109.921C224.768 110.134 225.329 110.494 225.799 111.002L225.648 109.438L227.525 109.257ZM223.039 118.607C223.69 118.544 224.269 118.337 224.774 117.986C225.279 117.622 225.654 117.152 225.901 116.576C226.147 115.986 226.235 115.333 226.166 114.616C226.097 113.9 225.887 113.282 225.534 112.763C225.18 112.232 224.722 111.842 224.159 111.594C223.596 111.345 222.988 111.253 222.337 111.315C221.672 111.379 221.087 111.587 220.581 111.938C220.089 112.288 219.713 112.758 219.454 113.349C219.207 113.925 219.118 114.572 219.187 115.288C219.256 116.005 219.468 116.629 219.821 117.161C220.187 117.678 220.645 118.068 221.197 118.331C221.76 118.579 222.374 118.671 223.039 118.607Z" fill="#E0004B"/>
<path fill-rule="evenodd" clip-rule="evenodd" d="M235.23 108.416C236.234 108.32 237.154 108.455 237.992 108.821C238.83 109.188 239.508 109.747 240.028 110.5C240.561 111.251 240.877 112.148 240.978 113.19C241.078 114.233 240.939 115.18 240.561 116.032C240.194 116.87 239.635 117.548 238.882 118.068C238.13 118.588 237.252 118.896 236.249 118.993C235.506 119.064 234.808 118.987 234.154 118.76C233.514 118.532 232.953 118.166 232.47 117.66L232.986 123.016L231.109 123.197L229.746 109.043L231.545 108.87L231.703 110.512C232.065 109.899 232.551 109.418 233.162 109.069C233.772 108.708 234.461 108.491 235.23 108.416ZM235.934 117.365C236.599 117.301 237.177 117.095 237.67 116.745C238.174 116.38 238.55 115.91 238.797 115.334C239.055 114.743 239.15 114.09 239.081 113.373C239.012 112.656 238.795 112.039 238.43 111.522C238.076 110.99 237.617 110.6 237.054 110.352C236.504 110.102 235.897 110.01 235.232 110.074C234.58 110.136 234.002 110.35 233.498 110.714C233.006 111.064 232.629 111.528 232.369 112.105C232.122 112.682 232.033 113.328 232.102 114.045C232.171 114.762 232.383 115.386 232.736 115.917C233.089 116.436 233.547 116.826 234.112 117.087C234.675 117.335 235.282 117.428 235.934 117.365Z" fill="#E0004B"/>
<path d="M241.837 107.879L243.714 107.698L244.137 112.097L250.041 111.528L249.618 107.13L251.494 106.949L252.492 117.31L250.615 117.491L250.197 113.151L244.293 113.719L244.711 118.059L242.835 118.24L241.837 107.879Z" fill="#E0004B"/>
<path fill-rule="evenodd" clip-rule="evenodd" d="M262.083 105.929L263.081 116.29L261.4 116.452L261.084 113.168L257.858 113.479L255.906 116.981L253.893 117.175L256.074 113.394C255.269 113.235 254.633 112.908 254.164 112.414C253.695 111.907 253.421 111.249 253.343 110.441C253.229 109.255 253.546 108.317 254.295 107.626C255.043 106.923 256.127 106.503 257.548 106.366L262.083 105.929ZM255.265 110.315C255.331 111.006 255.596 111.5 256.058 111.797C256.533 112.08 257.207 112.18 258.08 112.096L260.954 111.819L260.56 107.733L257.765 108.003C255.966 108.176 255.133 108.947 255.265 110.315Z" fill="#E0004B"/>
<path d="M177.838 119.72C179.41 119.72 180.685 118.445 180.685 116.872C180.685 115.299 179.41 114.024 177.838 114.024C176.265 114.024 174.99 115.299 174.99 116.872C174.99 118.445 176.265 119.72 177.838 119.72Z" fill="#E0004B"/>
<path d="M272.795 108.034C272.795 109.607 271.52 110.882 269.947 110.882C268.374 110.882 267.099 109.607 267.099 108.034C267.099 106.461 268.374 105.186 269.947 105.186C271.52 105.186 272.795 106.461 272.795 108.034Z" fill="#E0004B"/>
</svg>
