<svg width="240" height="56" viewBox="0 0 240 56" fill="none" xmlns="http://www.w3.org/2000/svg">
  <path
    fill-rule="evenodd"
    clip-rule="evenodd"
    d="M231.286 29.9332C231.563 29.9331 231.776 30.0719 231.926 30.3497C232.075 30.6274 232.15 30.9801 232.15 31.4075C232.15 31.9419 232.075 32.3587 231.926 32.658C231.777 32.9359 231.542 33.1284 231.222 33.2354C229.942 33.6848 228.534 33.9419 226.998 34.0068C226.572 35.7809 225.761 37.2133 224.567 38.3039C223.394 39.3945 222.092 39.9401 220.663 39.9408C218.509 39.9418 216.941 39.1196 215.959 37.4743C215.36 36.4705 214.944 35.192 214.711 33.6389C213.814 33.8463 212.863 33.9713 211.857 34.0137C211.452 35.8093 210.653 37.2523 209.458 38.3429C208.263 39.4121 206.909 39.9471 205.394 39.9478C204.114 39.9484 203.016 39.639 202.098 39.0196C201.496 38.6028 200.989 38.0941 200.579 37.4934C199.84 38.1898 199.014 38.7633 198.102 39.2138C196.63 39.9198 194.999 40.2732 193.207 40.274C191.329 40.2749 189.879 39.955 188.855 39.3142C187.831 38.6521 187.319 37.5944 187.319 36.141C187.319 35.222 187.51 34.4418 187.894 33.8004C188.3 33.1376 188.78 32.6031 189.334 32.1967C189.91 31.769 190.625 31.3305 191.478 30.8813C192.353 30.4107 192.992 30.0043 193.398 29.6621C193.803 29.2986 194.006 28.871 194.006 28.3794C194.006 28.1016 193.888 27.8879 193.654 27.7384C193.419 27.5675 193.078 27.4822 192.63 27.4824C192.224 27.4826 191.862 27.5469 191.542 27.6753C190.889 27.8934 190.206 28.2369 189.672 28.6757C189.368 28.926 189.193 29.1646 188.96 29.4828C188.842 29.6429 188.71 29.8239 188.539 30.0362L188.529 30.0481C188.462 30.1315 188.393 30.2169 188.322 30.3046C187.215 31.6729 185.64 33.5733 183.034 33.918C183.027 33.9577 183.021 33.9941 183.015 34.0271C182.61 35.8226 181.81 37.2657 180.616 38.3562C179.421 39.4255 178.067 39.9604 176.552 39.9611C175.272 39.9617 174.173 39.6523 173.256 39.0329C172.637 38.6047 172.119 38.0795 171.704 37.4573C171.152 37.9935 170.577 38.4658 169.978 38.8741C168.933 39.6013 167.738 39.9652 166.394 39.9658C165.264 39.9663 164.346 39.5607 163.642 38.7488C162.426 39.5402 161.157 39.9468 159.835 39.9688C159.558 44.094 158.929 47.5354 157.948 50.293C156.966 53.072 155.527 54.4619 153.628 54.4627C152.476 54.4633 151.623 54.0469 151.068 53.2136C150.513 52.3803 150.236 51.2263 150.236 49.7515C150.236 47.6569 150.715 45.2095 151.675 42.4091C151.971 41.5522 152.317 40.6678 152.712 39.756C152.173 39.9003 151.604 39.9726 151.006 39.9729C149.982 39.9734 149.224 39.5783 148.734 38.7877C148.264 37.9971 148.03 36.8858 148.029 35.4538C147.667 36.9074 147.123 38.0297 146.398 38.8209C145.673 39.5906 144.894 39.9757 144.062 39.9761C143.102 39.9765 142.313 39.5388 141.694 38.6627C141.508 38.3828 141.35 38.0821 141.222 37.7606C140.765 38.179 140.292 38.5548 139.803 38.888C138.758 39.6152 137.563 39.9791 136.219 39.9797C135.131 39.9802 134.31 39.6707 133.755 39.0511C133.201 38.4102 132.923 37.4913 132.923 36.2944C132.923 35.6959 133.072 34.6272 133.371 33.0882C133.648 31.7415 133.787 30.8117 133.787 30.2988C133.787 29.9568 133.669 29.7858 133.435 29.786C133.157 29.7861 132.763 30.1496 132.251 30.8765C131.76 31.5821 131.248 32.5227 130.715 33.6985C130.203 34.8743 129.787 36.1141 129.468 37.418C129.233 38.4227 128.956 39.1068 128.636 39.4703C128.337 39.8124 127.857 39.9836 127.196 39.9839C126.385 39.9843 125.809 39.5571 125.468 38.7023C125.148 37.8475 124.988 36.4797 124.987 34.5988C124.987 31.8203 125.382 29.1805 126.171 26.6795C126.363 26.0596 126.672 25.6106 127.099 25.3326C127.547 25.0331 128.165 24.8832 128.954 24.8829C129.381 24.8827 129.68 24.936 129.85 25.0428C130.021 25.1495 130.106 25.3525 130.106 25.6518C130.107 25.9937 129.947 26.7633 129.627 27.9603C129.413 28.8153 129.243 29.5635 129.115 30.2047C128.987 30.846 128.88 31.6368 128.795 32.5773C129.499 30.7389 130.288 29.2424 131.163 28.0878C132.037 26.9333 132.89 26.11 133.722 25.618C134.576 25.1261 135.354 24.8799 136.058 24.8796C137.445 24.8789 138.138 25.5733 138.138 26.9625C138.138 27.7961 137.904 29.303 137.435 31.4833C137.029 33.3429 136.827 34.572 136.827 35.1705C136.827 36.0254 137.136 36.4527 137.755 36.4524C138.182 36.4522 138.683 36.1955 139.259 35.6823C139.683 35.3028 140.204 34.7617 140.821 34.0589C140.863 32.9442 140.962 31.9034 141.117 30.9366C141.331 29.59 141.682 28.1685 142.173 26.6721C142.386 26.0308 142.685 25.5712 143.069 25.2931C143.453 25.0151 144.061 24.8759 144.893 24.8755C145.362 24.8753 145.682 24.95 145.853 25.0995C146.045 25.249 146.141 25.4734 146.141 25.7726C146.141 25.9436 146.023 26.5207 145.789 27.504C145.576 28.2949 145.405 29.011 145.277 29.6523C144.851 31.8966 144.637 33.3929 144.638 34.1409C144.638 34.5898 144.691 34.9103 144.798 35.1027C144.904 35.2736 145.075 35.359 145.31 35.3589C145.63 35.3588 146.024 35.038 146.493 34.3966C146.984 33.7551 147.496 32.7824 148.029 31.4784C148.584 30.1744 149.117 28.5711 149.629 26.6687C149.799 26.0274 150.055 25.5678 150.396 25.2898C150.759 25.0117 151.292 24.8726 151.996 24.8722C152.487 24.872 152.828 24.936 153.02 25.0641C153.212 25.1709 153.308 25.3846 153.308 25.7052C153.308 26.2395 153.042 27.7037 152.509 30.0978C151.912 32.8338 151.613 34.5224 151.613 35.1636C151.613 35.5697 151.699 35.8903 151.869 36.1253C152.04 36.339 152.264 36.4457 152.541 36.4456C152.968 36.4454 153.469 36.1887 154.045 35.6755C154.48 35.2858 155.018 34.7258 155.657 33.9955C155.809 33.7341 155.964 33.4709 156.122 33.2059C156.122 30.0854 156.1 27.916 156.058 26.6978C156.036 26.078 156.281 25.5863 156.793 25.2227C157.305 24.8591 157.945 24.6771 158.713 24.6768C159.161 24.6766 159.481 24.7726 159.673 24.9649C159.887 25.1358 160.004 25.4884 160.025 26.0227C160.025 26.557 160.036 26.9524 160.057 27.2089C160.74 26.3536 161.412 25.7442 162.073 25.3805C162.734 24.9955 163.438 24.8028 164.185 24.8025C165.38 24.8019 166.35 25.2824 167.097 26.2438C167.865 27.2053 168.249 28.4661 168.249 30.0264C168.249 31.1592 168.068 32.26 167.706 33.3288C167.343 34.3976 166.842 35.3703 166.202 36.2469C166.65 36.375 167.023 36.4389 167.322 36.4388C168.026 36.4385 168.698 36.1817 169.338 35.6684C169.698 35.3791 170.117 34.9811 170.593 34.4745C170.533 34.0709 170.504 33.6565 170.504 33.2313C170.504 31.607 170.813 30.1641 171.431 28.9028C172.05 27.6201 172.903 26.6259 173.991 25.9201C175.079 25.1929 176.284 24.829 177.607 24.8284C179.228 24.8276 180.529 25.3934 181.511 26.5257C182.513 27.6367 183.1 29.015 183.271 30.6606C183.278 30.7251 183.283 30.7922 183.287 30.8615C184.286 30.5087 185.082 29.6579 186.051 28.4604L186.137 28.3538L186.256 28.2053C186.748 27.5933 187.31 26.8934 187.923 26.3294C188.155 26.1163 188.407 25.9093 188.683 25.7219C189.234 25.2859 189.944 25.0589 190.613 24.8865C191.445 24.6724 192.288 24.5651 193.141 24.5647C194.741 24.564 195.947 24.852 196.757 25.4287C197.589 25.984 198.005 26.796 198.005 27.8646C198.005 28.7837 197.814 29.5532 197.43 30.1732C197.046 30.7932 196.587 31.285 196.054 31.6486C195.521 32.0122 194.827 32.4079 193.974 32.8358C193.057 33.3064 192.385 33.7128 191.958 34.055C191.532 34.3972 191.318 34.8568 191.318 35.4339C191.318 35.9041 191.489 36.2353 191.83 36.4275C192.172 36.6197 192.769 36.7156 193.622 36.7152C194.881 36.7146 196.129 36.4041 197.366 35.7837C198.104 35.4076 198.79 34.9434 199.425 34.3911C199.372 34.0097 199.346 33.6186 199.346 33.218C199.346 31.5937 199.655 30.1508 200.274 28.8895C200.892 27.6068 201.745 26.6126 202.833 25.9068C203.921 25.1796 205.126 24.8157 206.449 24.8151C208.07 24.8143 209.372 25.3801 210.353 26.5124C211.356 27.6234 211.942 29.0017 212.113 30.6473C212.811 30.6024 213.602 30.4848 214.487 30.2947C214.489 27.5461 214.83 24.564 215.51 21.3484C216.192 18.0994 217.184 15.3417 218.485 13.0756C219.807 10.788 221.375 9.64384 223.188 9.64301C224.17 9.64255 224.959 10.0697 225.556 10.9243C226.154 11.7576 226.452 12.8475 226.453 14.194C226.453 15.9466 226.122 17.6887 225.461 19.4202C224.8 21.1518 223.701 22.969 222.166 24.8719C223.595 24.9781 224.758 25.576 225.654 26.6657C226.55 27.7339 227.083 29.0588 227.254 30.6404C228.257 30.5758 229.451 30.3615 230.838 29.9975C230.966 29.9547 231.115 29.9333 231.286 29.9332ZM177.835 31.0363C177.53 30.1473 177.486 29.154 177.677 28.2243C177.627 28.2151 177.577 28.2081 177.526 28.2032C176.885 28.1415 176.263 28.4361 175.746 28.9778C175.602 29.1234 175.465 29.2901 175.335 29.4781C175.223 29.6418 175.123 29.8195 175.034 30.011C174.73 30.6174 174.519 31.3418 174.443 32.1307C174.359 33.0019 174.452 33.8274 174.679 34.5255C174.791 34.9613 174.957 35.3307 175.176 35.6337C175.552 36.1303 175.976 36.4278 176.448 36.5262C176.537 36.5491 176.628 36.5653 176.72 36.5742C177.2 36.6204 177.669 36.4669 178.091 36.1597C178.259 36.0418 178.418 35.898 178.568 35.7283C178.649 35.6398 178.726 35.5452 178.799 35.4443C179.208 34.8923 179.526 34.171 179.696 33.3519C179.67 33.3367 179.645 33.3212 179.619 33.3055C178.708 32.7457 178.135 31.9128 177.835 31.0363ZM222.453 12.8173C222.026 12.8175 221.557 13.4589 221.045 14.7415C220.554 16.0028 220.096 17.7235 219.669 19.9038C219.243 22.0841 218.923 24.4673 218.71 27.0536C220.118 24.4668 221.238 22.19 222.069 20.2233C222.922 18.2352 223.349 16.4717 223.349 14.9328C223.349 14.2489 223.263 13.7253 223.093 13.362C222.943 12.9987 222.73 12.8171 222.453 12.8173ZM220.791 36.5424C221.452 36.5421 222.039 36.2639 222.551 35.708C223.063 35.152 223.404 34.3504 223.574 33.303C222.913 32.8545 222.401 32.267 222.038 31.5404C221.697 30.8139 221.526 30.0445 221.526 29.2324C221.526 28.9331 221.569 28.527 221.654 28.014L221.558 28.0141C220.683 28.0145 219.947 28.453 219.35 29.3295C218.774 30.1847 218.486 31.339 218.487 32.7924C218.487 34.0107 218.711 34.9403 219.159 35.5813C219.628 36.2223 220.172 36.5426 220.791 36.5424ZM207.41 35.715C206.919 36.2709 206.333 36.549 205.65 36.5493C205.031 36.5496 204.487 36.24 204.018 35.6204C203.57 35.0007 203.346 34.1032 203.346 32.9276C203.346 31.4315 203.623 30.2772 204.177 29.4648C204.753 28.631 205.468 28.2139 206.321 28.2135L206.481 28.2134C206.417 28.5554 206.385 28.8974 206.385 29.2393C206.385 30.0515 206.556 30.8209 206.898 31.5474C207.26 32.2739 207.772 32.8615 208.434 33.31C208.263 34.3574 207.922 35.159 207.41 35.715ZM159.994 36.891C160.762 36.7197 161.466 36.3026 162.106 35.6397C162.767 34.9554 163.29 34.1216 163.674 33.1383C164.058 32.1336 164.25 31.0862 164.249 29.9962C164.249 29.355 164.121 28.8741 163.865 28.5536C163.609 28.2118 163.268 28.041 162.841 28.0412C162.073 28.0415 161.146 28.8541 160.058 30.479C160.036 31.4194 160.026 32.798 160.026 34.6147C160.026 35.5979 160.016 36.3567 159.994 36.891ZM153.884 51.3208C154.46 51.3205 154.94 50.0593 155.323 47.537C155.707 45.0362 155.952 41.9156 156.059 38.1752C155.141 40.313 154.416 42.3544 153.883 44.2997C153.35 46.2449 153.084 47.88 153.084 49.2052C153.084 49.8891 153.169 50.4127 153.34 50.776C153.489 51.1393 153.671 51.3209 153.884 51.3208Z"
    fill="white"
  />
  <path
    fill-rule="evenodd"
    clip-rule="evenodd"
    d="M36.4038 34.4578C36.3462 34.0604 36.3175 33.6526 36.3175 33.2343C36.3175 31.613 36.6268 30.173 37.2455 28.9143C37.8641 27.6343 38.7175 26.6423 39.8055 25.9383C40.8935 25.213 42.0988 24.8503 43.4215 24.8503C45.0428 24.8503 46.3441 25.4156 47.3255 26.5463C48.3281 27.6556 48.9148 29.0316 49.0855 30.6743C50.0881 30.6103 51.2828 30.397 52.6695 30.0343C52.8401 29.9916 52.9895 29.9703 53.1175 29.9703C53.3948 29.9703 53.6081 30.109 53.7575 30.3863C53.9068 30.6636 53.9815 31.0156 53.9815 31.4423C53.9815 32.024 53.8816 32.4715 53.682 32.7847C53.7119 32.8905 53.7175 33.0083 53.699 33.1383C53.5283 34.1623 53.443 34.8663 53.443 35.2503C53.443 36.0183 53.635 36.4023 54.019 36.4023C54.2323 36.4023 54.467 36.2423 54.723 35.9223C55.0003 35.6023 55.459 34.8236 56.099 33.5863C56.5896 32.6476 57.091 31.5916 57.603 30.4183C58.1363 29.245 58.5736 28.1996 58.915 27.2823C59.2563 26.3863 59.651 25.7783 60.099 25.4583C60.547 25.117 61.187 24.9463 62.019 24.9463C62.8296 24.9463 63.427 25.1063 63.811 25.4263C64.195 25.7463 64.387 26.269 64.387 26.9943L64.323 29.3623C64.2376 31.1543 64.195 32.445 64.195 33.2343C64.195 35.4743 64.6536 36.5943 65.571 36.5943C65.955 36.5943 66.3283 36.413 66.691 36.0503C66.8568 35.8936 67.0605 35.6813 67.3019 35.4132C67.349 34.4679 67.5915 33.7096 68.0295 33.1383C68.5415 32.4983 69.2348 32.1783 70.1095 32.1783C70.8775 32.1783 71.2615 32.4876 71.2615 33.1063C71.2615 33.1916 71.2401 33.341 71.1975 33.5543C71.1548 33.8956 71.1335 34.1516 71.1335 34.3223C71.1335 35.005 71.2828 35.5703 71.5815 36.0183C71.8801 36.4663 72.2855 36.6903 72.7975 36.6903C73.4588 36.6903 74.1308 36.4876 74.8135 36.0823C75.4961 35.6556 76.1681 35.0583 76.8295 34.2903H76.4135C75.1335 34.2903 74.1095 33.885 73.3415 33.0743C72.5948 32.2636 72.2215 31.1756 72.2215 29.8103C72.2215 28.2316 72.6801 27.0156 73.5975 26.1623C74.5148 25.2876 75.7948 24.8503 77.4375 24.8503C78.5895 24.8503 79.7735 25.0316 80.9895 25.3943C81.2241 25.0743 81.7148 24.9143 82.4615 24.9143C82.8881 24.9143 83.2188 25.021 83.4535 25.2343C83.7095 25.4263 83.8161 25.693 83.7735 26.0343C83.7308 26.5676 83.5388 27.517 83.1975 28.8823C82.8775 30.2476 82.6321 31.421 82.4615 32.4023C82.2908 33.3836 82.2055 34.301 82.2055 35.1543C82.2055 35.5596 82.2801 35.8796 82.4295 36.1143C82.6001 36.3276 82.8348 36.4343 83.1335 36.4343C83.5388 36.4343 84.0295 36.189 84.6055 35.6983C85.0296 35.337 85.5751 34.7733 86.2421 34.0073C86.2927 31.4427 86.6855 28.9984 87.4205 26.6743C87.6125 26.0556 87.9218 25.6076 88.3485 25.3303C88.7751 25.0316 89.3938 24.8823 90.2045 24.8823C90.6311 24.8823 90.9298 24.9356 91.1005 25.0423C91.2711 25.149 91.3565 25.3516 91.3565 25.6503C91.3565 25.9916 91.1965 26.7596 90.8765 27.9543C90.7058 28.6583 90.5458 29.5116 90.3965 30.5143H94.4925C94.7058 29.5116 95.0151 28.2316 95.4205 26.6743C95.5911 26.0343 95.8471 25.5756 96.1885 25.2983C96.5511 25.021 97.0845 24.8823 97.7885 24.8823C98.2791 24.8823 98.6205 24.9463 98.8125 25.0743C99.0045 25.181 99.1005 25.3943 99.1005 25.7143C99.1005 26.2476 98.8338 27.709 98.3005 30.0983C97.7031 32.829 97.4045 34.5143 97.4045 35.1543C97.4045 35.5596 97.4898 35.8796 97.6605 36.1143C97.8311 36.3276 98.0551 36.4343 98.3325 36.4343C98.7591 36.4343 99.2605 36.1783 99.8365 35.6663C100.152 35.3842 100.522 35.0125 100.946 34.5513C100.973 32.9139 101.368 31.3655 102.128 29.9063C102.917 28.3703 103.963 27.1436 105.264 26.2263C106.587 25.2876 107.984 24.8183 109.456 24.8183C109.925 24.8183 110.235 24.9143 110.384 25.1063C110.555 25.277 110.693 25.597 110.8 26.0663C111.248 25.981 111.717 25.9383 112.208 25.9383C113.253 25.9383 113.776 26.3116 113.776 27.0583C113.776 27.5063 113.616 28.573 113.296 30.2583C112.805 32.7116 112.56 34.4183 112.56 35.3783C112.56 35.6983 112.635 35.9543 112.784 36.1463C112.955 36.3383 113.168 36.4343 113.424 36.4343C113.829 36.4343 114.32 36.1783 114.896 35.6663C115.472 35.133 116.251 34.2796 117.232 33.1063C117.488 32.8076 117.776 32.6583 118.096 32.6583C118.373 32.6583 118.587 32.7863 118.736 33.0423C118.907 33.2983 118.992 33.6503 118.992 34.0983C118.992 34.9516 118.789 35.613 118.384 36.0823C117.509 37.1703 116.581 38.0876 115.6 38.8343C114.619 39.581 113.669 39.9543 112.752 39.9543C112.048 39.9543 111.397 39.7196 110.8 39.2503C110.224 38.7596 109.787 38.0983 109.488 37.2663C108.379 39.0583 106.981 39.9543 105.296 39.9543C103.973 39.9543 102.917 39.4743 102.128 38.5143C101.949 38.2964 101.79 38.0631 101.651 37.8144C101.212 38.2028 100.767 38.5534 100.316 38.8663C99.2925 39.5916 98.1191 39.9543 96.7965 39.9543C95.6871 39.9543 94.9085 39.613 94.4605 38.9303C94.0125 38.2476 93.7885 37.2236 93.7885 35.8583C93.7885 35.2823 93.8418 34.589 93.9485 33.7783C92.0711 33.7783 90.7698 33.757 90.0445 33.7143C90.0018 34.3116 89.9805 34.7276 89.9805 34.9623V35.6343C89.9591 36.957 89.9271 37.885 89.8845 38.4183C89.8418 38.9516 89.7138 39.3463 89.5005 39.6023C89.2871 39.837 88.9351 39.9543 88.4445 39.9543C87.6338 39.9543 87.0578 39.5276 86.7165 38.6743C86.6257 38.4323 86.5479 38.1492 86.4829 37.8249C85.9643 38.293 85.4558 38.6828 84.9575 38.9943C83.9335 39.6343 82.9201 39.9543 81.9175 39.9543C81.0428 39.9543 80.3708 39.645 79.9015 39.0263C79.4321 38.4076 79.1975 37.5223 79.1975 36.3703C79.1975 35.7516 79.2615 35.0796 79.3895 34.3543H79.3255C77.3415 38.0876 74.8135 39.9543 71.7415 39.9543C70.4188 39.9543 69.3415 39.5703 68.5095 38.8023C68.3858 38.6851 68.2716 38.5623 68.1668 38.4337C67.7287 38.7906 67.2154 39.1161 66.627 39.4103C65.8803 39.773 65.027 39.9543 64.067 39.9543C62.8083 39.9543 61.9123 39.4636 61.379 38.4823C60.8456 37.4796 60.579 35.9756 60.579 33.9703C60.579 32.9676 60.6216 31.997 60.707 31.0583H60.643C59.7896 33.8956 58.7336 36.0823 57.475 37.6183C56.2376 39.1543 54.819 39.9223 53.219 39.9223C52.131 39.9223 51.2776 39.5276 50.659 38.7383C50.0403 37.949 49.731 36.957 49.731 35.7623C49.731 35.0697 49.8344 34.4626 50.0412 33.941C49.6466 33.986 49.2426 34.0171 48.8295 34.0343C48.4241 35.8263 47.6241 37.2663 46.4295 38.3543C45.2348 39.421 43.8801 39.9543 42.3655 39.9543C41.0855 39.9543 39.9868 39.645 39.0695 39.0263C38.4582 38.6042 37.9463 38.0879 37.5336 37.4772C36.8658 38.1302 36.198 38.6466 35.5302 39.0263C34.4636 39.645 33.3222 39.9543 32.1062 39.9543C30.2929 39.9543 28.8849 39.421 27.8822 38.3543C26.8796 37.2663 26.3782 35.8156 26.3782 34.0023C26.3782 32.8716 26.6342 31.0476 27.1462 28.5303L28.3302 22.6743C28.9276 19.7303 29.2689 17.7143 29.3542 16.6263C27.9462 16.5623 26.2822 16.5303 24.3622 16.5303C23.2102 16.5303 22.3782 16.541 21.8662 16.5623C21.0982 20.445 20.3729 24.381 19.6902 28.3703C19.4556 29.821 19.2102 31.5063 18.9542 33.4263C18.6982 35.325 18.5276 36.861 18.4422 38.0343C18.3996 38.653 18.1436 39.133 17.6742 39.4743C17.2049 39.7943 16.6396 39.9543 15.9782 39.9543C15.2742 39.9543 14.7302 39.7836 14.3462 39.4423C13.9622 39.101 13.7702 38.653 13.7702 38.0983C13.7702 37.5863 13.8449 36.7436 13.9942 35.5703C14.1649 34.3756 14.3569 33.1276 14.5702 31.8263C14.8049 30.525 14.9862 29.3943 15.1142 28.4343C15.3916 26.6636 15.6902 24.9356 16.0102 23.2503C16.3302 21.565 16.6502 19.9436 16.9702 18.3863L17.2902 16.8503C15.3062 17.085 13.8662 17.469 12.9702 18.0023C12.0956 18.5356 11.6582 19.261 11.6582 20.1783C11.6582 20.925 11.8396 21.5756 12.2022 22.1303C12.3089 22.2796 12.3622 22.4716 12.3622 22.7063C12.3622 23.133 12.1276 23.5276 11.6582 23.8903C11.2102 24.2316 10.7302 24.4023 10.2182 24.4023C9.85555 24.4023 9.55689 24.2956 9.32222 24.0823C8.89555 23.7196 8.54355 23.2076 8.26622 22.5463C7.98889 21.8636 7.85022 21.0956 7.85022 20.2423C7.85022 18.429 8.47955 16.9783 9.73822 15.8903C10.9969 14.781 12.8956 13.9703 15.4342 13.4583C17.9942 12.9463 21.2902 12.6903 25.3222 12.6903C29.5036 12.6903 33.5996 13.0103 37.6102 13.6503C38.2716 13.757 38.7409 13.981 39.0182 14.3223C39.3169 14.6423 39.4662 15.0156 39.4662 15.4423C39.4662 16.0823 39.3062 16.573 38.9862 16.9143C38.6662 17.2343 38.1862 17.3943 37.5462 17.3943C37.3116 17.3943 37.1302 17.3836 37.0022 17.3623L33.7702 16.9463C33.6849 18.4396 33.4609 19.9756 33.0982 21.5543L31.1462 30.7063C30.9329 31.773 30.8262 32.6903 30.8262 33.4583C30.8262 34.3543 31.0289 35.0263 31.4342 35.4743C31.8609 35.9223 32.4476 36.1463 33.1942 36.1463C33.8982 36.1463 34.5809 35.9116 35.2422 35.4423C35.5976 35.198 35.9848 34.8698 36.4038 34.4578ZM44.3815 35.7303C43.8908 36.285 43.3041 36.5623 42.6215 36.5623C42.0028 36.5623 41.4588 36.253 40.9895 35.6343C40.5415 35.0156 40.3175 34.1196 40.3175 32.9463C40.3175 31.453 40.5948 30.301 41.1495 29.4903C41.7255 28.6583 42.4401 28.2423 43.2935 28.2423H43.4535C43.3895 28.5836 43.3575 28.925 43.3575 29.2663C43.3575 30.077 43.5281 30.845 43.8695 31.5703C44.2321 32.2956 44.7441 32.8823 45.4055 33.3303C45.2348 34.3756 44.8935 35.1756 44.3815 35.7303ZM80.2535 27.7943C79.8268 29.2236 79.2508 30.5676 78.5255 31.8263C78.1841 31.869 77.8748 31.8903 77.5975 31.8903C77.0001 31.8903 76.4988 31.6876 76.0935 31.2823C75.7095 30.877 75.5175 30.3756 75.5175 29.7783C75.5175 29.0316 75.7521 28.4556 76.2215 28.0503C76.6908 27.645 77.3521 27.4423 78.2055 27.4423C78.8028 27.4423 79.4855 27.5596 80.2535 27.7943ZM107.792 35.8903C107.365 36.445 106.917 36.7223 106.448 36.7223C105.979 36.7223 105.605 36.5623 105.328 36.2423C105.072 35.9223 104.944 35.4316 104.944 34.7703C104.944 33.5756 105.168 32.445 105.616 31.3783C106.064 30.3116 106.661 29.4583 107.408 28.8183C108.176 28.157 109.008 27.8156 109.904 27.7943L108.72 33.6823C108.528 34.5996 108.219 35.3356 107.792 35.8903Z"
    fill="white"
  />
</svg>
